<?xml version="1.0" encoding="utf-8"?>
<!-- Generator: Adobe Illustrator 18.0.0, SVG Export Plug-In . SVG Version: 6.00 Build 0)  -->
<!DOCTYPE svg PUBLIC "-//W3C//DTD SVG 1.1//EN" "http://www.w3.org/Graphics/SVG/1.1/DTD/svg11.dtd">
<svg version="1.1" id="Capa_1" xmlns:sketch="http://www.bohemiancoding.com/sketch/ns"
	 xmlns="http://www.w3.org/2000/svg" xmlns:xlink="http://www.w3.org/1999/xlink" x="0px" y="0px" viewBox="0 0 32 32"
	 enable-background="new 0 0 32 32" xml:space="preserve">
<title>icon 105 folder add</title>
<desc>Created with Sketch.</desc>
<g>
	<polygon points="27,23 27,20 26,20 26,23 23,23 23,24 26,24 26,27 27,27 27,24 30,24 30,23 	"/>
	<path d="M29,18.6V11c0-1.1-0.9-2-2-2H15l-2-4H2C0.9,5,0,5.9,0,7v18c0,1.1,0.9,2,2,2h20.3c1,1.2,2.5,2,4.2,2c3,0,5.5-2.5,5.5-5.5
		C32,21.4,30.8,19.5,29,18.6z M1,7c0-0.5,0.4-1,1-1h10.4l2,4H27c0.5,0,1,0.4,1,1v2H1V7z M2,26c-0.5,0-1-0.4-1-1V14h27v4.2
		c-0.5-0.1-1-0.2-1.5-0.2c-3,0-5.5,2.5-5.5,5.5c0,0.9,0.2,1.7,0.6,2.5H2z M26.5,28C24,28,22,26,22,23.5s2-4.5,4.5-4.5s4.5,2,4.5,4.5
		S29,28,26.5,28z"/>
</g>
</svg>
