<?xml version="1.0" encoding="utf-8"?>
<!-- Generator: Adobe Illustrator 18.0.0, SVG Export Plug-In . SVG Version: 6.00 Build 0)  -->
<!DOCTYPE svg PUBLIC "-//W3C//DTD SVG 1.1//EN" "http://www.w3.org/Graphics/SVG/1.1/DTD/svg11.dtd">
<svg version="1.1" id="Capa_1" xmlns:sketch="http://www.bohemiancoding.com/sketch/ns"
	 xmlns="http://www.w3.org/2000/svg" xmlns:xlink="http://www.w3.org/1999/xlink" x="0px" y="0px" viewBox="0 0 32 32"
	 enable-background="new 0 0 32 32" xml:space="preserve">
<title>icon 81 document add</title>
<desc>Created with Sketch.</desc>
<g>
	<polygon points="21,25 21,22 20,22 20,25 17,25 17,26 20,26 20,29 21,29 21,26 24,26 24,25 	"/>
	<path d="M23,20.6V9.5V9l-6-7h-0.5H6C4.9,2,4,2.9,4,4v23c0,1.1,0.9,2,2,2h10.3c1,1.2,2.5,2,4.2,2c3,0,5.5-2.5,5.5-5.5
		C26,23.4,24.8,21.5,23,20.6z M17,3.5L21.7,9H18c-0.5,0-1-0.5-1-1V3.5z M6,28c-0.5,0-1-0.4-1-1V4c0-0.5,0.4-1,1-1h10v5
		c0,1.1,0.9,2,2,2h4v10.2c-0.5-0.1-1-0.2-1.5-0.2c-3,0-5.5,2.5-5.5,5.5c0,0.9,0.2,1.7,0.6,2.5H6z M20.5,30C18,30,16,28,16,25.5
		s2-4.5,4.5-4.5s4.5,2,4.5,4.5S23,30,20.5,30z"/>
</g>
</svg>
