<?xml version="1.0" encoding="iso-8859-1"?>
<!-- Generator: Adobe Illustrator 16.0.0, SVG Export Plug-In . SVG Version: 6.00 Build 0)  -->
<!DOCTYPE svg PUBLIC "-//W3C//DTD SVG 1.1//EN" "http://www.w3.org/Graphics/SVG/1.1/DTD/svg11.dtd">
<svg version="1.1" id="Capa_1" xmlns="http://www.w3.org/2000/svg" xmlns:xlink="http://www.w3.org/1999/xlink" x="0px" y="0px"
	 width="35.316px" height="22.748px" viewBox="0 0 35.316 22.748" style="enable-background:new 0 0 35.316 22.748;"
	 xml:space="preserve">
<path d="M26.971,6.059c-0.748,0-1.492,0.104-2.223,0.305C23.848,2.641,20.539,0,16.646,0C12.93,0,9.631,2.521,8.625,6.064
	C8.531,6.061,8.438,6.059,8.344,6.059C3.742,6.059,0,9.803,0,14.404s3.742,8.344,8.344,8.344h18.627c4.6,0,8.346-3.742,8.346-8.344
	S31.57,6.059,26.971,6.059z M26.971,21.609H8.344c-3.975,0-7.205-3.23-7.205-7.205s3.23-7.211,7.205-7.211
	c0.227,0,0.445,0.018,0.662,0.037l0.5,0.045l0.111-0.492c0.717-3.27,3.676-5.643,7.029-5.643c3.555,0,6.543,2.543,7.109,6.053
	l0.107,0.68l0.646-0.238c0.803-0.289,1.631-0.441,2.461-0.441c3.973,0,7.207,3.236,7.207,7.211S30.943,21.609,26.971,21.609z"/>
<path d="M22.799,15.297c-0.729,0.014-2.488,0.047-2.488,0.047s-0.008-0.43-0.023-1.084c-0.035-1.879-0.102-5.297-0.131-6.688
	c0,0,0.096-0.383-0.477-0.371c-0.576,0.014-5.242,0.104-5.648,0.109c-0.412,0.008-0.395,0.324-0.395,0.324
	c0.025,1.354,0.092,4.891,0.129,6.705c0.01,0.586,0.02,0.971,0.02,0.971s-1.412,0.029-2.301,0.045
	c-0.887,0.018-0.203,0.67-0.203,0.67s4.926,4.898,5.459,5.408c0.389,0.375,0.744-0.055,0.744-0.055l5.387-5.449
	C22.871,15.93,23.531,15.283,22.799,15.297z"/>
<g>
</g>
<g>
</g>
<g>
</g>
<g>
</g>
<g>
</g>
<g>
</g>
<g>
</g>
<g>
</g>
<g>
</g>
<g>
</g>
<g>
</g>
<g>
</g>
<g>
</g>
<g>
</g>
<g>
</g>
</svg>
