<?xml version="1.0" encoding="UTF-8" standalone="no"?>
<!-- Generator: Adobe Illustrator 17.0.0, SVG Export Plug-In . SVG Version: 6.00 Build 0)  -->

<svg
   xmlns:dc="http://purl.org/dc/elements/1.1/"
   xmlns:cc="http://creativecommons.org/ns#"
   xmlns:rdf="http://www.w3.org/1999/02/22-rdf-syntax-ns#"
   xmlns:svg="http://www.w3.org/2000/svg"
   xmlns="http://www.w3.org/2000/svg"
   xmlns:sodipodi="http://sodipodi.sourceforge.net/DTD/sodipodi-0.dtd"
   xmlns:inkscape="http://www.inkscape.org/namespaces/inkscape"
   version="1.1"
   id="Capa_1"
   x="0px"
   y="0px"
   width="27.892px"
   height="22.49px"
   viewBox="0 0 27.892 22.49"
   enable-background="new 0 0 27.892 22.49"
   xml:space="preserve"
   inkscape:version="0.48.4 r9939"
   sodipodi:docname="icon.svg"><metadata
     id="metadata3039"><rdf:RDF><cc:Work
         rdf:about=""><dc:format>image/svg+xml</dc:format><dc:type
           rdf:resource="http://purl.org/dc/dcmitype/StillImage" /></cc:Work></rdf:RDF></metadata><defs
     id="defs3037" /><sodipodi:namedview
     pagecolor="#ffffff"
     bordercolor="#666666"
     borderopacity="1"
     objecttolerance="10"
     gridtolerance="10"
     guidetolerance="10"
     inkscape:pageopacity="0"
     inkscape:pageshadow="2"
     inkscape:window-width="1280"
     inkscape:window-height="749"
     id="namedview3035"
     showgrid="false"
     inkscape:zoom="24.41085"
     inkscape:cx="13.946"
     inkscape:cy="11.245"
     inkscape:window-x="0"
     inkscape:window-y="25"
     inkscape:window-maximized="1"
     inkscape:current-layer="Capa_1" /><path
     fill="#2D2D2D"
     d="M8.719,8.842c0.093-0.08,0.163-0.177,0.22-0.284H8.99C9.129,8.817,9.292,9.051,9.467,9.27H8.196L8.719,8.842  z M19.012,17.867v-5.088V11.27h-0.548v1.303v4.581h-5.441H2.339v-4.149H2.337V9.27h0.52l-0.22-0.712H1.79v4.305v5.004h10.876H19.012  z M0.188,22.49h20.284l0.15-0.5H0L0.188,22.49z M19.66,18.653l1.09,2.91l-0.052,0.167H0l1.389-3.077H19.66z M11.448,21.599  l-0.389-0.988H9.041l-0.327,0.988H11.448z M19.277,20.449l-0.583-1.439H2.061l-0.683,1.439H19.277z M24.122,3.133  c-0.124,0-0.247,0.006-0.369,0.02C23.006,1.304,21.197,0,19.079,0c-1.82,0-3.411,0.968-4.298,2.416  C14.356,2.278,13.904,2.2,13.435,2.2c-2.432,0-4.402,1.971-4.402,4.403c0,3.852,4.024,4.296,4.024,4.296h11.906  c1.678-0.453,2.929-2.204,2.929-3.997C27.892,4.82,26.204,3.133,24.122,3.133z M4.194,11.783c0.061,0.02,0.125,0.006,0.172-0.033  l3.59-2.94c0.052-0.046,0.077-0.113,0.065-0.181C8.008,8.562,7.958,8.506,7.893,8.487L6.457,8.056  C6.634,7.475,6.805,7.007,6.973,6.62c0.803-1.85,2.109-2.018,2.165-2.024c0.073-0.007,0.137-0.061,0.157-0.132  c0.003-0.011,0.006-0.022,0.008-0.033C9.312,4.34,9.257,4.258,9.17,4.234c-2.905-0.875-4.562,2.392-4.907,3.16L2.927,6.993  c-0.064-0.02-0.134-0.002-0.184,0.049C2.692,7.091,2.677,7.161,2.696,7.227l1.374,4.434C4.088,11.72,4.135,11.766,4.194,11.783z"
     id="path3033" /><text
     xml:space="preserve"
     style="font-size:8px;font-style:normal;font-weight:normal;line-height:125%;letter-spacing:0px;word-spacing:0px;fill:#ffffff;fill-opacity:1;stroke:none;font-family:Sans"
     x="12.788527"
     y="9.8339968"
     id="text3041"
     sodipodi:linespacing="125%"><tspan
       sodipodi:role="line"
       id="tspan3043"
       x="12.788527"
       y="9.8339968"
       style="font-size:9px;font-style:normal;font-variant:normal;font-weight:normal;font-stretch:normal;font-family:Ubuntu;-inkscape-font-specification:Ubuntu">CC</tspan></text>
</svg>