<?xml version="1.0" encoding="utf-8"?>
<!-- Generator: Adobe Illustrator 18.0.0, SVG Export Plug-In . SVG Version: 6.00 Build 0)  -->
<!DOCTYPE svg PUBLIC "-//W3C//DTD SVG 1.1//EN" "http://www.w3.org/Graphics/SVG/1.1/DTD/svg11.dtd">
<svg version="1.1" id="Capa_1" xmlns:sketch="http://www.bohemiancoding.com/sketch/ns"
	 xmlns="http://www.w3.org/2000/svg" xmlns:xlink="http://www.w3.org/1999/xlink" x="0px" y="0px" viewBox="0 0 32 32"
	 enable-background="new 0 0 32 32" xml:space="preserve">
<title>icon 92 inbox download</title>
<desc>Created with Sketch.</desc>
<g>
	<polygon points="12,13.5 16.5,18 21,13.5 20.2,12.8 17,16 17,5 16,5 16,16 12.8,12.8 	"/>
	<path d="M24,10h-6v1h5.4l4.4,7H21v2c0,1.1-0.9,2-2,2h-5c-1.1,0-2-0.9-2-2v-2H5.2l4.4-7H15v-1H9l-5,8v0.5V27h25v-8.5V18L24,10z
		 M28,26H5v-7h6v1.5c0,1.4,1.1,2.5,2.5,2.5h6c1.4,0,2.5-1.1,2.5-2.5V19h6V26z"/>
</g>
</svg>
