<?xml version="1.0" encoding="utf-8"?>
<!-- Generator: Adobe Illustrator 16.0.0, SVG Export Plug-In . SVG Version: 6.00 Build 0)  -->
<!DOCTYPE svg PUBLIC "-//W3C//DTD SVG 1.1//EN" "http://www.w3.org/Graphics/SVG/1.1/DTD/svg11.dtd">
<svg version="1.1" id="Capa_1" xmlns="http://www.w3.org/2000/svg" xmlns:xlink="http://www.w3.org/1999/xlink" x="0px" y="0px"
	 width="64px" height="64px" viewBox="0 0 64 64" enable-background="new 0 0 64 64" xml:space="preserve">
<path d="M62.79,61.06L41.523,39.795c3.712-4.18,5.988-9.66,5.988-15.677c0-13.042-10.609-23.651-23.65-23.651
	C10.819,0.467,0.21,11.076,0.21,24.118c0,13.041,10.609,23.65,23.651,23.65c6.016,0,11.497-2.276,15.677-5.988l21.265,21.267
	c0.273,0.273,0.634,0.411,0.993,0.411c0.36,0,0.721-0.138,0.994-0.411C63.34,62.496,63.34,61.609,62.79,61.06z M23.861,44.958
	c-11.492,0-20.841-9.348-20.841-20.84S12.369,3.277,23.861,3.277c11.491,0,20.84,9.349,20.84,20.841
	c0,5.241-1.958,10.023-5.163,13.689c-0.619,0.706-1.281,1.368-1.987,1.987C33.885,43,29.102,44.958,23.861,44.958z"/>
</svg>
