<?xml version="1.0" encoding="utf-8"?>
<!-- Generator: Adobe Illustrator 16.0.4, SVG Export Plug-In . SVG Version: 6.00 Build 0)  -->
<!DOCTYPE svg PUBLIC "-//W3C//DTD SVG 1.1//EN" "http://www.w3.org/Graphics/SVG/1.1/DTD/svg11.dtd">
<svg version="1.1" id="Capa_1" xmlns="http://www.w3.org/2000/svg" xmlns:xlink="http://www.w3.org/1999/xlink" x="0px" y="0px"
	 width="64px" height="64px" viewBox="0 0 64 64" enable-background="new 0 0 64 64" xml:space="preserve">
<g id="Layer_1_copy">
	<path d="M15.832,27.4c-0.165-0.331-0.426-0.604-0.75-0.809c-0.338-0.207-0.737-0.352-1.193-0.438c-0.464-0.084-1-0.122-1.621-0.128
		l-2.867,0.002c-0.298,0.004-0.59,0.236-0.66,0.524l-1.929,8.402c-0.07,0.285,0.117,0.523,0.415,0.523H8.6
		c0.298,0,0.593-0.232,0.659-0.523l0.471-2.04c0.063-0.284,0.357-0.521,0.658-0.521h0.393c1.679-0.003,2.979-0.345,3.913-1.032
		c0.939-0.688,1.402-1.597,1.402-2.723C16.095,28.144,16.014,27.73,15.832,27.4z M12.871,30.145
		c-0.415,0.304-0.992,0.456-1.736,0.456H10.8c-0.299,0-0.482-0.236-0.417-0.524l0.413-1.784c0.058-0.286,0.359-0.523,0.654-0.521
		l0.45-0.003c0.525,0,0.926,0.091,1.194,0.267c0.265,0.174,0.398,0.451,0.396,0.818C13.497,29.412,13.284,29.842,12.871,30.145z
		 M31.745,29.049l-5.47,9.251c-0.176,0.289-0.565,0.522-0.861,0.522l-1.422,0.002c-0.295,0-0.392-0.235-0.212-0.523l1.216-2.119
		c0,0,0.098-0.123,0.011-0.813c-0.187-1.251-1.121-6.566-1.121-6.566c-0.067-0.288,0.115-0.524,0.411-0.524l1.23-0.002
		c0.377,0,0.68,0.248,0.748,0.538l0.612,3.687l0.228,0.003c0.191-0.339,2.157-3.713,2.157-3.713
		c0.188-0.285,0.568-0.524,0.864-0.524c0,0,1.321,0.004,1.646,0C32.271,28.258,31.745,29.049,31.745,29.049z M40.764,27.431
		c-0.172-0.333-0.429-0.602-0.756-0.812c-0.333-0.208-0.73-0.354-1.193-0.438c-0.455-0.081-0.998-0.125-1.615-0.126l-2.871,0.002
		c-0.299,0.005-0.587,0.237-0.655,0.522l-1.931,8.407c-0.07,0.285,0.122,0.521,0.414,0.521l1.375-0.002
		c0.292,0.002,0.592-0.233,0.66-0.519l0.465-2.041c0.068-0.285,0.363-0.524,0.66-0.521h0.393c1.68,0,2.984-0.346,3.922-1.031
		c0.926-0.693,1.395-1.6,1.395-2.727C41.023,28.174,40.938,27.759,40.764,27.431z M37.803,30.18c-0.414,0.298-0.992,0.45-1.732,0.45
		h-0.342c-0.295,0.003-0.487-0.237-0.42-0.523l0.416-1.781c0.06-0.285,0.36-0.524,0.656-0.521l0.446-0.003
		c0.528,0.003,0.924,0.09,1.194,0.266c0.268,0.176,0.396,0.452,0.4,0.818C38.423,29.445,38.215,29.874,37.803,30.18z M22.452,28.601
		c-0.518-0.292-1.336-0.438-2.454-0.438c-0.553,0-1.104,0.043-1.661,0.129c-0.411,0.063-0.451,0.075-0.704,0.13
		c-0.522,0.114-0.604,0.635-0.604,0.635l-0.168,0.691c-0.095,0.441,0.159,0.424,0.265,0.387c0.228-0.068,0.355-0.138,0.821-0.242
		c0.445-0.101,0.914-0.177,1.286-0.172c0.549,0,0.969,0.058,1.249,0.176c0.276,0.12,0.414,0.326,0.414,0.624l-0.024,0.194
		l-0.198,0.122c-0.779,0.049-1.342,0.121-2.025,0.22c-0.668,0.093-1.254,0.256-1.741,0.479c-0.523,0.23-0.911,0.539-1.182,0.932
		c-0.262,0.395-0.393,0.874-0.393,1.436c0,0.529,0.19,0.965,0.559,1.303c0.371,0.332,0.861,0.494,1.447,0.494
		c0.371-0.002,0.658-0.031,0.862-0.08l0.665-0.229l0.563-0.313l0.518-0.341l0.007,0.009l-0.052,0.22l-0.003,0.008v0.002
		c-0.056,0.268,0.106,0.489,0.367,0.514l0.005,0.006h0.024h1.053h0.198l0.018-0.008c0.274-0.032,0.531-0.252,0.591-0.514
		l1.001-4.332l0.052-0.353l0.024-0.331C23.237,29.347,22.971,28.892,22.452,28.601z M20.239,33.473l-0.214,0.283l-0.54,0.279
		c-0.254,0.102-0.495,0.156-0.718,0.156c-0.338,0-0.603-0.049-0.782-0.15l-0.265-0.514c0-0.28,0.064-0.5,0.201-0.67l0.582-0.396
		c0.249-0.084,0.553-0.155,0.905-0.204c0.314-0.039,0.934-0.11,1.015-0.112l0.095,0.167C20.499,32.405,20.323,33.141,20.239,33.473z
		 M54.52,25.558h0.459v0.189H54.52v0.611l0.002,0.165l0.033,0.11l0.072,0.07l0.141,0.022l0.115-0.016l0.086-0.026h0.012v0.201
		l-0.138,0.027l-0.132,0.011L54.4,26.81l-0.107-0.352v-0.711h-0.154v-0.189h0.154v-0.381h0.227V25.558L54.52,25.558z M47.389,28.607
		c-0.521-0.292-1.338-0.439-2.453-0.439c-0.553,0-1.106,0.043-1.66,0.132c-0.412,0.06-0.453,0.073-0.707,0.127
		c-0.522,0.113-0.602,0.636-0.602,0.636l-0.168,0.69c-0.094,0.441,0.155,0.421,0.27,0.387c0.228-0.068,0.352-0.135,0.814-0.243
		c0.444-0.1,0.916-0.174,1.29-0.172c0.546,0,0.966,0.059,1.246,0.177c0.278,0.12,0.414,0.328,0.414,0.623l-0.021,0.193l-0.197,0.125
		c-0.786,0.047-1.35,0.119-2.026,0.218c-0.666,0.093-1.255,0.255-1.743,0.479c-0.521,0.231-0.914,0.54-1.182,0.933
		c-0.264,0.395-0.393,0.873-0.393,1.431c0,0.533,0.189,0.969,0.561,1.305c0.374,0.331,0.859,0.497,1.445,0.497
		c0.369-0.004,0.656-0.028,0.861-0.081l0.664-0.225l0.567-0.313l0.514-0.346l0.009,0.011l-0.047,0.221l-0.005,0.004l0.003,0.004
		c-0.062,0.268,0.1,0.49,0.365,0.514L45.21,35.5h0.024l0,0c0.173,0,0.771,0,1.056,0h0.194l0.02-0.007
		c0.271-0.033,0.528-0.253,0.584-0.517l1.005-4.327l0.052-0.355l0.029-0.332C48.174,29.351,47.913,28.898,47.389,28.607z
		 M45.18,33.479l-0.222,0.285l-0.536,0.278c-0.254,0.101-0.496,0.155-0.715,0.155c-0.348,0-0.607-0.049-0.781-0.15l-0.268-0.513
		c0-0.28,0.066-0.499,0.197-0.671c0.133-0.164,0.336-0.297,0.588-0.395c0.246-0.084,0.55-0.152,0.904-0.203
		c0.312-0.04,0.93-0.112,1.01-0.113l0.096,0.168C45.439,32.412,45.262,33.145,45.18,33.479z M52.538,26.646l0.003,0.001l-1.838,8.33
		l-0.066,0.1c-0.107,0.234-0.341,0.424-0.592,0.424h-1.277l-0.021-0.029c-0.244-0.037-0.403-0.232-0.345-0.488L48.4,34.977
		l0.055-0.24l1.72-7.814l0.062-0.272l0.068-0.106c0.111-0.23,0.338-0.417,0.59-0.417h1.23C52.421,26.126,52.6,26.36,52.538,26.646z
		 M57.098,25.655l0.105,0.373v0.867H56.98v-0.763l-0.015-0.163l-0.028-0.129l-0.08-0.077l-0.148-0.027l-0.188,0.047l-0.19,0.121
		l0.004,0.065l0.003,0.071v0.854h-0.223v-0.763l-0.01-0.165l-0.033-0.128l-0.076-0.077l-0.152-0.027l-0.185,0.046l-0.187,0.116
		v0.997H55.25v-1.335h0.223v0.148l0.211-0.136l0.223-0.049l0.232,0.055l0.143,0.159l0.246-0.166l0.242-0.049L57.098,25.655z"/>
</g>
</svg>
