<?xml version="1.0" encoding="iso-8859-1"?>
<!-- Generator: Adobe Illustrator 16.0.4, SVG Export Plug-In . SVG Version: 6.00 Build 0)  -->
<!DOCTYPE svg PUBLIC "-//W3C//DTD SVG 1.1//EN" "http://www.w3.org/Graphics/SVG/1.1/DTD/svg11.dtd">
<svg version="1.1" id="Capa_1" xmlns="http://www.w3.org/2000/svg" xmlns:xlink="http://www.w3.org/1999/xlink" x="0px" y="0px"
	 width="32px" height="32px" viewBox="0 0 32 32" style="enable-background:new 0 0 32 32;" xml:space="preserve">
<g id="Stop">
	<g>
		<path d="M16,0C7.178,0,0,7.178,0,16c0,8.822,7.178,16,16,16c8.822,0,16-7.178,16-16C32,7.178,24.822,0,16,0z M16,30
			C8.28,30,2,23.721,2,16C2,8.28,8.28,2,16,2c7.721,0,14,6.28,14,14C30,23.721,23.721,30,16,30z M20,11h-8c-0.553,0-1,0.447-1,1v8
			c0,0.553,0.447,1,1,1h8c0.553,0,1-0.447,1-1v-8C21,11.447,20.553,11,20,11z M19,19h-6v-6h6V19z"/>
	</g>
</g>
</svg>
